<?xml version="1.0" encoding="utf-8"?>
<!-- Generated by IcoMoon.io -->
<!DOCTYPE svg PUBLIC "-//W3C//DTD SVG 1.1//EN" "http://www.w3.org/Graphics/SVG/1.1/DTD/svg11.dtd">
<svg version="1.1" xmlns="http://www.w3.org/2000/svg" xmlns:xlink="http://www.w3.org/1999/xlink" width="25" height="25" viewBox="0 0 25 25">
<path fill="#ffffff" d="M24.772 20.084c-0-0-0-0-0-0l-7.584-7.584 7.584-7.584c0-0 0-0 0-0 0.082-0.082 0.141-0.177 0.179-0.279 0.104-0.278 0.045-0.603-0.179-0.826l-3.583-3.583c-0.223-0.223-0.548-0.282-0.826-0.179-0.102 0.038-0.197 0.097-0.279 0.178 0 0-0 0-0 0l-7.584 7.584-7.584-7.584c-0-0-0-0-0-0-0.082-0.082-0.177-0.141-0.279-0.178-0.278-0.104-0.603-0.045-0.826 0.179l-3.583 3.583c-0.223 0.223-0.282 0.548-0.179 0.826 0.038 0.102 0.097 0.197 0.179 0.279 0 0 0 0 0 0l7.584 7.584-7.584 7.584c-0 0-0 0-0 0-0.082 0.082-0.141 0.177-0.179 0.279-0.104 0.278-0.045 0.603 0.179 0.826l3.583 3.583c0.223 0.223 0.548 0.282 0.826 0.179 0.102-0.038 0.197-0.097 0.279-0.179 0-0 0-0 0-0l7.584-7.584 7.584 7.584c0 0 0 0 0 0 0.082 0.082 0.177 0.141 0.279 0.179 0.278 0.104 0.603 0.045 0.826-0.179l3.583-3.583c0.223-0.223 0.282-0.548 0.179-0.826-0.038-0.102-0.097-0.197-0.179-0.279z"></path>
</svg>
